<svg width="48" height="48" viewBox="0 0 48 48" fill="none" xmlns="http://www.w3.org/2000/svg">
<rect width="48" height="48" rx="24" fill="url(#paint0_radial_123_151)"/>
<path fill-rule="evenodd" clip-rule="evenodd" d="M18.7095 11.2437C20.078 11.1807 20.5143 11.1667 24.0003 11.1667C27.4863 11.1667 27.9227 11.1819 29.29 11.2437C30.6573 11.3056 31.5907 11.5237 32.4073 11.8399C33.2625 12.1631 34.0383 12.6682 34.68 13.3216C35.3333 13.9621 35.8373 14.7367 36.1593 15.5931C36.4767 16.4097 36.6937 17.3431 36.7567 18.7081C36.8197 20.0789 36.8337 20.5152 36.8337 24.0001C36.8337 27.4861 36.8185 27.9224 36.7567 29.2909C36.6948 30.6559 36.4767 31.5892 36.1593 32.4059C35.8373 33.2624 35.3325 34.0383 34.68 34.6797C34.0383 35.3331 33.2625 35.8371 32.4073 36.1591C31.5907 36.4764 30.6573 36.6934 29.2923 36.7564C27.9227 36.8194 27.4863 36.8334 24.0003 36.8334C20.5143 36.8334 20.078 36.8182 18.7095 36.7564C17.3445 36.6946 16.4112 36.4764 15.5945 36.1591C14.7381 35.837 13.9621 35.3322 13.3207 34.6797C12.6678 34.0389 12.1625 33.2633 11.8402 32.4071C11.524 31.5904 11.307 30.6571 11.244 29.2921C11.181 27.9212 11.167 27.4849 11.167 24.0001C11.167 20.5141 11.1822 20.0777 11.244 18.7104C11.3058 17.3431 11.524 16.4097 11.8402 15.5931C12.163 14.7368 12.6686 13.9613 13.3218 13.3204C13.9624 12.6677 14.7375 12.1624 15.5933 11.8399C16.41 11.5237 17.3433 11.3067 18.7083 11.2437H18.7095ZM29.1862 13.5537C27.8328 13.4919 27.4268 13.4791 24.0003 13.4791C20.5738 13.4791 20.1678 13.4919 18.8145 13.5537C17.5627 13.6109 16.8837 13.8197 16.431 13.9959C15.8325 14.2292 15.4043 14.5057 14.9552 14.9549C14.5294 15.3691 14.2017 15.8734 13.9962 16.4307C13.82 16.8834 13.6112 17.5624 13.554 18.8142C13.4922 20.1676 13.4793 20.5736 13.4793 24.0001C13.4793 27.4266 13.4922 27.8326 13.554 29.1859C13.6112 30.4377 13.82 31.1167 13.9962 31.5694C14.2015 32.1259 14.5293 32.6311 14.9552 33.0452C15.3693 33.4711 15.8745 33.7989 16.431 34.0042C16.8837 34.1804 17.5627 34.3892 18.8145 34.4464C20.1678 34.5082 20.5727 34.5211 24.0003 34.5211C27.428 34.5211 27.8328 34.5082 29.1862 34.4464C30.438 34.3892 31.117 34.1804 31.5697 34.0042C32.1682 33.7709 32.5963 33.4944 33.0455 33.0452C33.4713 32.6311 33.7992 32.1259 34.0045 31.5694C34.1807 31.1167 34.3895 30.4377 34.4467 29.1859C34.5085 27.8326 34.5213 27.4266 34.5213 24.0001C34.5213 20.5736 34.5085 20.1676 34.4467 18.8142C34.3895 17.5624 34.1807 16.8834 34.0045 16.4307C33.7712 15.8322 33.4947 15.4041 33.0455 14.9549C32.6312 14.5292 32.127 14.2015 31.5697 13.9959C31.117 13.8197 30.438 13.6109 29.1862 13.5537ZM22.3612 27.9562C23.2766 28.3373 24.2959 28.3887 25.2451 28.1018C26.1942 27.8148 27.0143 27.2071 27.5652 26.3827C28.1161 25.5582 28.3637 24.5681 28.2657 23.5814C28.1677 22.5946 27.7302 21.6725 27.0278 20.9726C26.5801 20.5251 26.0387 20.1825 25.4427 19.9694C24.8467 19.7563 24.2108 19.678 23.5809 19.7401C22.951 19.8023 22.3427 20.0033 21.7998 20.3287C21.2569 20.6542 20.7929 21.0959 20.4412 21.6222C20.0895 22.1485 19.8589 22.7463 19.7659 23.3724C19.673 23.9985 19.72 24.6374 19.9036 25.2432C20.0872 25.8489 20.4029 26.4065 20.8278 26.8756C21.2528 27.3447 21.7765 27.7138 22.3612 27.9562ZM19.336 19.3357C19.9485 18.7232 20.6757 18.2373 21.476 17.9058C22.2763 17.5743 23.1341 17.4037 24.0003 17.4037C24.8666 17.4037 25.7243 17.5743 26.5246 17.9058C27.325 18.2373 28.0521 18.7232 28.6647 19.3357C29.2772 19.9483 29.7631 20.6755 30.0946 21.4758C30.4261 22.2761 30.5967 23.1338 30.5967 24.0001C30.5967 24.8663 30.4261 25.7241 30.0946 26.5244C29.7631 27.3247 29.2772 28.0519 28.6647 28.6644C27.4276 29.9015 25.7498 30.5964 24.0003 30.5964C22.2509 30.5964 20.573 29.9015 19.336 28.6644C18.0989 27.4274 17.404 25.7495 17.404 24.0001C17.404 22.2506 18.0989 20.5728 19.336 19.3357ZM32.0597 18.3861C32.2114 18.2429 32.333 18.0707 32.417 17.8797C32.5011 17.6887 32.5459 17.4828 32.549 17.2742C32.552 17.0655 32.5132 16.8584 32.4347 16.665C32.3563 16.4717 32.2398 16.296 32.0923 16.1485C31.9447 16.0009 31.7691 15.8845 31.5757 15.806C31.3824 15.7276 31.1752 15.6887 30.9666 15.6918C30.7579 15.6948 30.552 15.7397 30.361 15.8237C30.17 15.9078 29.9978 16.0293 29.8547 16.1811C29.5762 16.4763 29.4237 16.8684 29.4296 17.2742C29.4356 17.6799 29.5994 18.0674 29.8863 18.3544C30.1733 18.6414 30.5608 18.8052 30.9666 18.8111C31.3723 18.817 31.7645 18.6646 32.0597 18.3861Z" fill="white"/>
<defs>
<radialGradient id="paint0_radial_123_151" cx="0" cy="0" r="1" gradientUnits="userSpaceOnUse" gradientTransform="translate(13.924 47.8997) scale(48.4282)">
<stop stop-color="#FFD776"/>
<stop offset="0.2463" stop-color="#F3A554"/>
<stop offset="0.3793" stop-color="#F15C3C"/>
<stop offset="0.5394" stop-color="#D94867"/>
<stop offset="0.6995" stop-color="#C32F87"/>
<stop offset="0.9122" stop-color="#7D63A7"/>
<stop offset="0.9852" stop-color="#5C6CB3"/>
</radialGradient>
</defs>
</svg>
