<svg width="48" height="48" viewBox="0 0 48 48" fill="none" xmlns="http://www.w3.org/2000/svg">
<rect width="48" height="48" rx="24" fill="#1DA1F2"/>
<path d="M37.5831 15.7598C36.6089 16.1914 35.5624 16.4831 34.4623 16.6149C35.5974 15.9357 36.4467 14.8666 36.8516 13.6073C35.7851 14.2407 34.6178 14.6867 33.4006 14.9256C32.5821 14.0516 31.4978 13.4723 30.3163 13.2776C29.1348 13.083 27.9221 13.2839 26.8664 13.8491C25.8107 14.4143 24.9712 15.3122 24.4781 16.4034C23.9851 17.4946 23.8661 18.7181 24.1396 19.8839C21.9786 19.7754 19.8645 19.2137 17.9346 18.2353C16.0047 17.2569 14.3021 15.8836 12.9373 14.2046C12.4706 15.0096 12.2023 15.9429 12.2023 16.9369C12.2018 17.8318 12.4221 18.7129 12.8438 19.5021C13.2655 20.2914 13.8755 20.9643 14.6196 21.4613C13.7566 21.4338 12.9126 21.2006 12.1579 20.7811V20.8511C12.1579 22.1061 12.592 23.3225 13.3867 24.2939C14.1813 25.2653 15.2876 25.9318 16.5178 26.1804C15.7172 26.3971 14.8778 26.429 14.0631 26.2738C14.4102 27.3536 15.0863 28.298 15.9967 28.9745C16.9071 29.6511 18.0063 30.026 19.1404 30.0468C17.2152 31.5581 14.8376 32.3779 12.3901 32.3743C11.9566 32.3744 11.5234 32.3491 11.0928 32.2984C13.5772 33.8958 16.4692 34.7436 19.4228 34.7403C29.4211 34.7403 34.8869 26.4593 34.8869 19.2773C34.8869 19.0439 34.8811 18.8083 34.8706 18.5749C35.9338 17.8061 36.8515 16.854 37.5808 15.7633L37.5831 15.7598Z" fill="white"/>
</svg>
