<svg width="48" height="48" viewBox="0 0 48 48" fill="none" xmlns="http://www.w3.org/2000/svg">
<rect width="48" height="48" rx="24" fill="#25D366"/>
<path fill-rule="evenodd" clip-rule="evenodd" d="M30.1108 25.8481C29.8066 25.696 28.3151 24.9631 28.0375 24.861C27.7598 24.7599 27.5577 24.7099 27.3545 25.0141C27.1524 25.3163 26.5716 26.0003 26.395 26.2024C26.2173 26.4055 26.0407 26.43 25.7375 26.2789C25.4344 26.1258 24.4564 25.8063 23.2978 24.7732C22.3964 23.9688 21.7869 22.9755 21.6103 22.6713C21.4337 22.3681 21.5909 22.2038 21.743 22.0527C21.8798 21.9169 22.0462 21.6985 22.1983 21.5219C22.3504 21.3442 22.4005 21.2177 22.5015 21.0145C22.6036 20.8124 22.5526 20.6358 22.476 20.4837C22.4004 20.3316 21.7941 18.8381 21.5409 18.2307C21.2949 17.6396 21.0448 17.7203 20.859 17.7101C20.6814 17.7019 20.4792 17.6999 20.2771 17.6999C20.075 17.6999 19.7463 17.7754 19.4686 18.0796C19.1899 18.3828 18.407 19.1168 18.407 20.6103C18.407 22.1027 19.4931 23.5452 19.6452 23.7483C19.7973 23.9504 21.7839 27.015 24.827 28.3288C25.5518 28.6411 26.1163 28.828 26.5563 28.9668C27.2831 29.1985 27.9446 29.1658 28.4673 29.0872C29.0491 29.0005 30.2619 28.3533 30.515 27.6448C30.7672 26.9364 30.7672 26.329 30.6916 26.2024C30.6161 26.0758 30.414 26.0003 30.1098 25.8481H30.1108ZM24.5758 33.4054H24.5718C22.7643 33.4057 20.99 32.9198 19.4349 31.9987L19.0674 31.7802L15.2475 32.7827L16.2673 29.0587L16.0274 28.6769C15.0169 27.0684 14.4822 25.2068 14.4849 23.3073C14.487 17.7438 19.0133 13.2174 24.5799 13.2174C27.2749 13.2174 29.8086 14.2689 31.7135 16.1758C32.653 17.1114 33.3977 18.2241 33.9045 19.4495C34.4112 20.6748 34.67 21.9885 34.6657 23.3144C34.6637 28.878 30.1373 33.4054 24.5758 33.4054ZM33.1631 14.7272C32.0383 13.595 30.7 12.6973 29.2258 12.0861C27.7516 11.4749 26.1707 11.1623 24.5748 11.1665C17.8843 11.1665 12.4371 16.6127 12.4351 23.3063C12.432 25.4365 12.9908 27.5299 14.0552 29.3751L12.333 35.6665L18.7683 33.9781C20.5485 34.948 22.5435 35.4562 24.5707 35.4562H24.5758C31.2664 35.4562 36.7135 30.0101 36.7156 23.3155C36.7205 21.7202 36.4091 20.1398 35.7993 18.6656C35.1895 17.1915 34.2935 15.8528 33.1631 14.7272Z" fill="white"/>
</svg>
